HIERARCHY
ROOT rear_leg_kick
{
	OFFSET 0.000000 0.000000 0.000000 
	CHANNELS 6 Xposition Yposition Zposition Xrotation Yrotation Zrotation
	JOINT Spine_01
	{
		OFFSET -2.065253 138.184219 -44.815624 
		CHANNELS 3 Xrotation Yrotation Zrotation
		JOINT Spine_02
		{
			OFFSET 0.520074 -4.180557 28.052856 
			CHANNELS 3 Xrotation Yrotation Zrotation
			JOINT Spine_03
			{
				OFFSET 0.791370 -2.919846 35.451523 
				CHANNELS 3 Xrotation Yrotation Zrotation
				JOINT Spine_04
				{
					OFFSET 0.747592 1.223022 39.269825 
					CHANNELS 3 Xrotation Yrotation Zrotation
					JOINT Neck_Base
					{
						OFFSET 0.000081 3.589020 29.437294 
						CHANNELS 3 Xrotation Yrotation Zrotation
						JOINT Neck_01
						{
							OFFSET 0.086413 17.644897 9.948303 
							CHANNELS 3 Xrotation Yrotation Zrotation
							JOINT Neck_02
							{
								OFFSET 0.177275 14.629242 15.949623 
								CHANNELS 3 Xrotation Yrotation Zrotation
								JOINT Head
								{
									OFFSET 0.182508 14.778946 16.250008 
									CHANNELS 3 Xrotation Yrotation Zrotation
									JOINT L_Ear
									{
										OFFSET 7.919987 16.572235 9.240326 
										CHANNELS 3 Xrotation Yrotation Zrotation
										End Site
										{
											OFFSET 6.815228 9.182251 -12.414536 
										}
									}
									JOINT R_Ear
									{
										OFFSET -7.928057 16.483398 9.391205 
										CHANNELS 3 Xrotation Yrotation Zrotation
										End Site
										{
											OFFSET 5.622296 -6.948959 14.317245 
										}
									}
									JOINT Jaw
									{
										OFFSET 0.105044 -4.313522 8.478790 
										CHANNELS 3 Xrotation Yrotation Zrotation
										End Site
										{
											OFFSET -0.111798 16.777130 -1.843124 
										}
									}
								}
							}
						}
					}
					JOINT R_Scapula
					{
						OFFSET -6.755534 17.542099 7.673988 
						CHANNELS 3 Xrotation Yrotation Zrotation
						JOINT R_Shoulder
						{
							OFFSET -4.014001 -35.522369 22.005142 
							CHANNELS 3 Xrotation Yrotation Zrotation
							JOINT R_Front_UpperLeg
							{
								OFFSET -3.180526 -27.349648 -18.723938 
								CHANNELS 3 Xrotation Yrotation Zrotation
								JOINT R_Front_LowerLeg
								{
									OFFSET 1.574751 -39.718536 2.863815 
									CHANNELS 3 Xrotation Yrotation Zrotation
									JOINT R_Front_Ankle
									{
										OFFSET 1.210720 -30.536894 2.201736 
										CHANNELS 3 Xrotation Yrotation Zrotation
										JOINT R_Front_Hoof
										{
											OFFSET -0.000329 -9.177136 4.105560 
											CHANNELS 3 Xrotation Yrotation Zrotation
											End Site
											{
												OFFSET -0.001001 0.000034 -10.053635 
											}
										}
									}
								}
							}
						}
					}
					JOINT L_Scapula
					{
						OFFSET 6.757073 17.541290 7.674065 
						CHANNELS 3 Xrotation Yrotation Zrotation
						JOINT L_Shoulder
						{
							OFFSET 2.968476 -35.658661 21.949913 
							CHANNELS 3 Xrotation Yrotation Zrotation
							JOINT L_Front_UpperLeg
							{
								OFFSET 1.998491 -26.938370 -19.468536 
								CHANNELS 3 Xrotation Yrotation Zrotation
								JOINT L_Front_LowerLeg
								{
									OFFSET -0.861290 -39.609924 -4.305416 
									CHANNELS 3 Xrotation Yrotation Zrotation
									JOINT L_Front_Ankle
									{
										OFFSET -0.662126 -30.452995 -3.314075 
										CHANNELS 3 Xrotation Yrotation Zrotation
										JOINT L_Front_Hoof
										{
											OFFSET 0.004961 -9.221653 4.004395 
											CHANNELS 3 Xrotation Yrotation Zrotation
											End Site
											{
												OFFSET 0.010740 -0.110461 10.052948 
											}
										}
									}
								}
							}
						}
					}
				}
			}
		}
		JOINT L_Hip
		{
			OFFSET 14.887411 -7.729401 -12.131317 
			CHANNELS 3 Xrotation Yrotation Zrotation
			JOINT L_Back_UpperLeg
			{
				OFFSET -0.000001 -34.478539 8.440952 
				CHANNELS 3 Xrotation Yrotation Zrotation
				JOINT L_Back_LowerLeg
				{
					OFFSET -1.688307 -42.425472 -14.651997 
					CHANNELS 3 Xrotation Yrotation Zrotation
					JOINT L_Back_Ankle
					{
						OFFSET 2.213187 -33.695141 13.007118 
						CHANNELS 3 Xrotation Yrotation Zrotation
						JOINT L_Back_Hoof
						{
							OFFSET 0.582796 -11.035059 3.767292 
							CHANNELS 3 Xrotation Yrotation Zrotation
							End Site
							{
								OFFSET 1.784864 0.000005 11.537720 
							}
						}
					}
				}
			}
		}
		JOINT R_Hip
		{
			OFFSET -14.887405 -7.729279 -12.131313 
			CHANNELS 3 Xrotation Yrotation Zrotation
			JOINT R_Back_UpperLeg
			{
				OFFSET 0.000004 -35.225853 4.378212 
				CHANNELS 3 Xrotation Yrotation Zrotation
				JOINT R_Back_LowerLeg
				{
					OFFSET 5.257670 -39.319450 -21.066193 
					CHANNELS 3 Xrotation Yrotation Zrotation
					JOINT R_Back_Ankle
					{
						OFFSET -0.134198 -36.054085 3.087997 
						CHANNELS 3 Xrotation Yrotation Zrotation
						JOINT R_Back_Hoof
						{
							OFFSET -0.767576 -11.035024 3.734016 
							CHANNELS 3 Xrotation Yrotation Zrotation
							End Site
							{
								OFFSET 2.350782 -0.000005 -11.435806 
							}
						}
					}
				}
			}
		}
		JOINT Tail_01
		{
			OFFSET 0.000002 9.427795 -23.815609 
			CHANNELS 3 Xrotation Yrotation Zrotation
			JOINT Tail_02
			{
				OFFSET 0.000390 -20.694008 -20.715851 
				CHANNELS 3 Xrotation Yrotation Zrotation
				JOINT Tail_03
				{
					OFFSET 0.413998 -30.804550 -2.971649 
					CHANNELS 3 Xrotation Yrotation Zrotation
					JOINT Tail_04
					{
						OFFSET 0.610636 -30.669823 2.589767 
						CHANNELS 3 Xrotation Yrotation Zrotation
						JOINT Tail_05
						{
							OFFSET 0.504950 -30.962078 0.649574 
							CHANNELS 3 Xrotation Yrotation Zrotation
							End Site
							{
								OFFSET -3.067470 1.161484 -30.798828 
							}
						}
					}
				}
			}
		}
	}
}
MOTION
Frames: 10
Frame Time: 0.033333
0.000000 0.000000 0.000000 0.000006 -0.000000 -0.000000 47.932713 -12.141226 -4.270911 -26.414240 8.236681 6.246453 -3.045371 4.336867 4.683273 13.816043 -3.689228 0.060191 -11.262829 -3.030744 0.472135 -6.831221 -2.644417 -5.015051 -2.912707 0.412596 -4.483382 9.173329 3.870118 -2.022617 -8.579163 4.879480 0.004495 -22.981890 -11.937483 1.043947 5.040104 0.026494 -0.048522 -3.799974 0.843945 -0.767172 14.385919 -1.634949 0.169849 -46.634659 0.086003 0.052499 -0.000122 0.000007 0.000004 2.420115 0.350137 0.336752 0.000055 -0.000001 0.000000 -5.543755 -0.792987 0.653792 15.225562 1.176048 -0.260835 -44.207558 -0.144174 -2.422795 0.000005 0.000051 0.000066 0.884904 0.425864 0.713059 0.000008 0.000100 -0.000040 15.747949 -0.000001 -0.000003 32.225018 -11.759287 -8.433100 11.883721 -0.059022 -1.713832 -10.450159 12.202665 -6.105424 0.000017 0.000047 -0.000019 17.407991 0.000003 0.000002 -9.661304 38.954700 3.702818 29.117195 2.032851 6.072265 10.572320 -9.867094 22.689228 0.000009 -0.000060 0.000000 -13.975397 -0.535805 0.223011 -13.959262 -0.503000 0.694322 -29.037514 -1.096138 1.722558 -28.984295 -1.248907 2.293384 -13.880016 -0.574435 1.577077 
0.000000 0.000000 0.000000 0.000006 -0.000000 -0.000000 46.690845 -11.577984 -4.330965 -25.434147 7.839520 5.904771 -3.492314 4.134288 4.527463 12.804571 -3.481437 0.070498 -12.997174 -2.825660 0.363813 -6.925274 -2.114910 -4.468137 -2.103055 0.577008 -4.158769 10.804884 3.443918 -1.958375 3.140673 -2.038109 0.826607 -19.234482 -9.995400 1.204528 5.314357 0.027796 -0.051266 -3.854053 0.860618 -0.784927 14.694247 -1.669320 0.177952 -44.785660 0.132703 0.148545 -0.000122 0.000002 0.000004 2.126380 0.316386 0.310077 0.000051 -0.000001 0.000000 -5.485144 -0.792419 0.662738 15.298816 1.181506 -0.262836 -42.307617 -0.201375 -2.369723 0.000005 0.000051 0.000063 0.661257 0.419551 0.691640 0.000006 0.000100 -0.000040 12.528395 -0.000001 -0.000004 35.326580 -9.601265 -4.374203 -3.558131 -0.051516 0.511739 6.316679 10.105967 -11.880096 0.000022 0.000062 -0.000016 14.069897 0.000001 0.000002 6.175925 38.180271 -4.410974 2.177113 0.042218 0.480782 27.091921 -7.605453 27.698969 0.000014 -0.000095 0.000002 -5.971587 -0.424779 0.198327 -5.960488 -0.297150 0.510578 -38.328705 -1.547786 2.093859 -38.256275 -1.805114 2.827351 -5.914517 -0.289578 0.894769 
0.000000 0.000000 0.000000 0.000006 -0.000000 -0.000000 43.297916 -10.081451 -4.392309 -22.867144 6.767371 5.036172 -4.541411 3.604059 4.110760 10.237621 -2.934399 0.093838 -12.731281 -2.522154 0.331922 -5.923289 -1.303070 -3.688175 -1.131697 0.699241 -3.777979 10.481548 2.667048 -1.593591 12.338481 -7.116066 2.252485 -9.958845 -5.131340 1.044333 5.412819 0.028260 -0.052254 -3.874149 0.871174 -0.799847 14.991961 -1.702471 0.185949 -39.785728 0.255829 0.335674 -0.000121 -0.000003 0.000004 1.526840 0.241420 0.246510 0.000053 -0.000001 0.000000 -5.277323 -0.774316 0.665547 15.148548 1.170315 -0.258734 -37.228340 -0.330094 -2.188551 0.000005 0.000052 0.000060 0.201013 0.394255 0.628268 0.000008 0.000100 -0.000040 4.851041 -0.000002 -0.000004 47.169090 -1.995069 -1.807100 -23.073093 -0.886715 3.194976 17.287865 2.902625 -14.508078 0.000024 0.000110 -0.000020 6.109880 0.000001 0.000001 24.206659 32.255383 -8.303267 -28.138399 1.088561 -6.085811 44.761162 -3.692454 29.235723 0.000013 -0.000165 0.000013 3.581543 -0.297515 0.170206 3.587190 -0.070910 0.267693 -37.752869 -1.505004 2.078976 -37.681580 -1.755492 2.803693 3.596901 -0.059795 0.048663 
0.000000 0.000000 0.000000 0.000006 -0.000000 -0.000000 38.245071 -7.975030 -4.214596 -19.283106 5.283455 3.906015 -5.743900 2.866270 3.477816 6.802924 -2.212767 0.107177 -10.812144 -2.066857 0.330795 -4.184362 -0.622226 -2.861547 -0.320385 0.686833 -3.204573 8.627927 1.856715 -1.107919 16.093761 -9.058891 3.015710 2.082929 1.040260 -0.327338 5.384512 0.028127 -0.051969 -3.820772 0.845732 -0.765139 14.445804 -1.641663 0.171385 -32.204159 0.399119 0.473449 -0.000120 -0.000007 0.000005 0.860346 0.151274 0.165590 0.000051 -0.000001 0.000001 -4.853441 -0.709547 0.619620 14.112756 1.092873 -0.231271 -29.753407 -0.450716 -1.836268 0.000006 0.000109 0.000063 -0.238477 0.340355 0.521129 0.000006 0.000100 -0.000041 -4.312277 -0.000001 -0.000007 61.230499 3.112136 -0.985282 -44.122040 -2.738042 5.602432 25.080742 -1.104150 -16.564211 0.000021 0.000061 -0.000024 -3.390799 0.000000 -0.000001 38.442307 24.887213 -7.204115 -48.264603 3.605993 -9.782587 53.858448 -0.448185 27.460871 0.000010 -0.000120 0.000024 11.585684 -0.190446 0.146659 11.587384 0.099629 0.047062 -34.019356 -1.312570 1.983373 -33.954834 -1.521426 2.644563 11.568616 0.037424 -0.672932 
0.000000 0.000000 0.000000 0.000006 -0.000000 -0.000000 32.002125 -5.627295 -3.598004 -15.269812 3.649302 2.714593 -6.674168 2.057028 2.681581 3.232806 -1.446581 0.088486 -7.538085 -1.483863 0.311675 -2.185514 -0.306223 -2.087522 0.084428 0.549760 -2.396597 5.701396 1.224918 -0.652362 14.288560 -8.129231 2.625779 14.354445 6.785365 -2.972678 5.271398 0.027593 -0.050836 -3.365533 0.717346 -0.635563 12.227756 -1.393294 0.118236 -23.020559 0.468983 0.462993 -0.000120 -0.000012 0.000005 0.483541 0.079563 0.088568 0.000051 -0.000001 0.000001 -3.976800 -0.568255 0.504055 11.676355 0.908833 -0.172220 -21.076672 -0.472713 -1.329375 0.000003 -0.000005 0.000047 -0.306488 0.250848 0.377326 0.000010 0.000100 -0.000041 -11.989624 -0.000001 -0.000008 67.792107 3.614691 0.087192 -61.621010 -4.858387 6.990595 34.028927 -0.855469 -17.462540 0.000021 0.000111 -0.000042 -11.350810 0.000002 -0.000003 46.098717 18.000298 -3.853897 -61.380234 5.883040 -11.640084 59.777924 2.244682 24.677267 0.000008 -0.000107 0.000029 14.942287 -0.145395 0.136894 14.942536 0.165323 -0.049523 -24.118841 -0.897327 1.695647 -24.070347 -1.017942 2.172951 14.912087 0.052069 -0.975829 
0.000000 0.000000 0.000000 0.000006 -0.000000 -0.000000 25.028860 -3.417175 -2.489374 -11.360639 2.091309 1.572284 -6.969241 1.313957 1.781620 0.281143 -0.722161 0.042000 -3.848518 -0.882818 0.235121 -0.505529 -0.217646 -1.339873 0.188777 0.339745 -1.481104 2.598432 0.772711 -0.295847 9.584181 -5.616547 1.719063 24.089111 10.738894 -5.844807 5.031233 0.026452 -0.048434 -2.202080 0.455808 -0.414149 8.261346 -0.944607 0.047307 -13.503698 0.411574 0.315969 -0.000120 -0.000017 0.000005 0.316471 0.034136 0.033858 0.000051 -0.000001 0.000000 -2.459549 -0.349731 0.332344 7.815639 0.612495 -0.094814 -12.364022 -0.375068 -0.769020 0.000004 0.000011 0.000046 -0.123197 0.146593 0.223372 0.000008 0.000100 -0.000042 -15.209160 -0.000001 -0.000008 58.682819 2.304182 0.375894 -69.842026 -5.977366 7.406381 45.143967 -1.370423 -15.620690 0.000022 0.000002 -0.000005 -14.688855 0.000002 -0.000003 43.051392 11.877003 -0.319770 -66.661842 6.910264 -12.234883 64.237396 4.557871 21.139383 0.000002 -0.000202 0.000065 13.762161 -0.156650 0.146593 13.762912 0.149060 -0.010745 7.235541 -0.033461 0.097314 7.235527 -0.078448 -0.062402 13.736924 0.055312 -0.865269 
0.000000 0.000000 0.000000 0.000006 -0.000000 -0.000000 17.806490 -1.660762 -1.023961 -7.936418 0.782584 0.543820 -6.347417 0.739038 0.835425 -1.352223 -0.096820 0.000504 -1.214011 -0.366404 0.111844 0.345518 -0.132120 -0.613672 0.221394 0.126429 -0.642105 0.565044 0.384946 -0.065631 3.044377 -1.935606 0.736756 28.072969 12.174368 -7.189175 4.621732 0.024484 -0.044348 -0.537055 0.135034 -0.166215 3.605378 -0.413054 0.003884 -5.293719 0.265343 0.128684 0.000092 0.000102 -0.000008 0.029217 0.001769 0.008767 0.000053 -0.000001 0.000000 -0.531181 -0.106625 0.149950 3.345396 0.263735 -0.030347 -4.918569 -0.214534 -0.302702 0.000005 0.000026 0.000045 -0.091990 0.064300 0.096014 0.000008 0.000100 -0.000042 -11.499787 -0.000001 -0.000008 34.914120 0.767822 -1.529487 -62.688488 -5.000215 7.053599 50.485905 -2.614755 -10.618726 0.000022 0.000010 -0.000006 -11.116706 0.000001 -0.000003 28.402199 6.449166 1.539105 -62.190929 6.037101 -11.737478 65.055122 5.970537 16.808666 0.000012 -0.000004 -0.000004 10.718773 -0.196121 0.176773 10.720816 0.104922 0.087905 31.606571 0.191992 -1.392304 31.572166 -0.027856 -2.005862 10.706247 0.054844 -0.579767 
0.000000 0.000000 0.000000 0.000006 -0.000000 -0.000000 10.858049 -0.532674 0.498855 -5.163020 -0.166911 -0.288024 -4.560046 0.357584 -0.082111 -1.135135 0.395626 -0.008806 -0.874464 0.006426 0.001944 -0.008468 0.052526 0.031199 0.191622 -0.034501 -0.035186 0.691187 -0.024811 0.002242 -4.346406 2.420006 0.042176 25.905973 11.407138 -6.447074 3.815809 0.020525 -0.036350 0.805948 -0.098048 0.008423 0.191187 -0.021902 -0.000449 -0.730190 0.126798 -0.016068 -0.000122 0.000080 -0.000002 -0.267163 -0.011882 0.010877 0.000051 -0.000001 -0.000000 0.980633 0.065758 0.022570 0.011839 0.000936 -0.000076 -0.802336 -0.088958 -0.060571 0.000004 0.000042 0.000043 -0.190447 0.025882 0.030742 0.000010 0.000100 -0.000043 -4.573007 -0.000002 -0.000007 9.816856 1.124393 -3.587879 -38.528290 -2.161011 5.030825 40.857517 -2.629711 -4.956214 0.000023 0.000016 -0.000009 -4.444345 0.000001 -0.000002 10.039494 2.566835 0.441564 -45.050087 3.117927 -9.253138 56.150211 5.064602 12.628311 0.000012 -0.000018 0.000000 6.557465 -0.244624 0.215553 6.561258 0.040021 0.219641 28.766397 0.204697 -1.227327 28.736162 0.015656 -1.791967 6.562373 0.034244 -0.189481 
0.000000 0.000000 0.000000 0.000006 -0.000000 -0.000000 4.737889 -0.028113 1.691199 -2.654185 -0.701898 -0.843288 -2.221708 0.138350 -0.815639 -0.262236 0.701977 -0.002107 -1.823775 0.251477 -0.062815 -0.864533 0.277713 0.518306 0.050973 -0.131899 0.330227 1.964650 -0.445573 -0.005893 -11.695517 6.862250 -0.189493 20.268948 9.259049 -4.646664 2.629004 0.014491 -0.024675 1.518798 -0.215037 0.095939 -1.571231 0.179930 0.006436 0.901211 0.045106 -0.109050 -0.000121 0.000066 -0.000001 -0.468341 -0.015580 0.024791 0.000050 -0.000001 -0.000000 1.803270 0.154716 -0.043969 -1.784412 -0.141277 0.009884 0.658951 -0.028106 0.022053 0.000006 0.000058 0.000042 -0.297669 0.017117 0.011482 0.000008 0.000100 -0.000043 -0.730772 -0.000002 -0.000007 -10.735797 2.113557 -2.390762 5.651832 0.016328 -0.816518 15.612498 -1.438767 -0.096061 0.000020 0.000024 -0.000012 -0.738010 0.000000 -0.000002 -6.535741 1.655282 -3.720576 -5.460503 -0.025479 -1.209717 24.520506 0.341162 6.824388 0.000010 -0.000028 0.000003 2.023514 -0.296403 0.257508 2.029382 -0.036334 0.358669 21.568106 0.210851 -0.808824 21.548029 0.088744 -1.242528 2.047718 -0.016326 0.233707 
0.000000 0.000000 0.000000 0.000006 -0.000000 -0.000000 -0.000034 0.000010 2.165778 -0.503912 -0.810301 -1.047207 -0.278561 0.081155 -1.127603 0.124292 0.753323 -0.003523 -2.357956 0.414742 -0.102750 -1.384791 0.432788 0.828664 -0.094054 -0.180369 0.562013 2.717625 -0.777315 0.002543 -18.135008 10.759582 -0.001741 12.469268 5.952091 -2.493178 1.382978 0.007897 -0.012554 2.005295 -0.292497 0.153970 -2.760878 0.316003 0.014591 1.940981 -0.013517 -0.167376 -0.000121 0.000052 0.000000 -0.556239 -0.015856 0.033872 0.000051 -0.000001 -0.000000 2.346913 0.208876 -0.086911 -2.966034 -0.234971 0.014001 1.572910 0.014285 0.073594 0.000006 0.000074 0.000041 -0.324915 0.012031 -0.002097 0.000007 0.000100 -0.000043 -0.549038 -0.000003 -0.000007 0.316502 1.856011 -3.965120 3.186972 0.019115 -0.460244 -2.811556 -1.877211 2.267878 0.000019 0.000028 -0.000013 -0.554464 0.000000 -0.000002 2.247792 1.786473 -3.770009 -1.248026 -0.015987 -0.276195 -0.315978 -1.878764 1.828278 0.000008 -0.000034 0.000006 -2.137697 -0.347892 0.297379 -2.129890 -0.111263 0.481759 11.995259 0.161400 -0.257697 11.988180 0.102070 -0.504761 -2.095461 -0.086724 0.618475 
